<?xml version="1.0" encoding="UTF-8"?>
<svg version="1.1" xmlns="http://www.w3.org/2000/svg" width="512" height="512">
<path d="M0 0 C5.57710201 5.87063369 8.17849139 12.96225432 9.875 20.75 C10.07802734 21.63260498 10.28105469 22.51520996 10.49023438 23.42456055 C12.25070346 31.3365149 13.55747294 39.31720191 14.875 47.3125 C17.38956141 65.43095269 17.38956141 65.43095269 25.375 81.5 C25.375 82.16 25.375 82.82 25.375 83.5 C40.29556521 89.54887779 56.02590979 85.8876445 71.375 83 C106.87217784 76.32186932 106.87217784 76.32186932 117.375 82.5 C120.96746101 86.00264948 121.68292398 89.08097278 121.9375 93.9375 C121.29017968 107.51373162 114.55350714 119.75825464 108.375 131.5625 C96.81149645 151.81716422 96.81149645 151.81716422 95.25 174.0625 C99.58282582 182.53363645 109.09521694 187.38958693 117.25 191.4375 C118.24942627 191.94764648 119.24885254 192.45779297 120.27856445 192.98339844 C126.6444272 196.21002156 133.08609656 199.25349444 139.5625 202.25 C161.43309938 212.42543132 161.43309938 212.42543132 167.375 222.5 C169.01163974 227.15624005 168.87942285 231.09384668 166.9375 235.625 C159.27429556 248.66273372 141.82629026 255.37287684 128.81103516 261.7578125 C123.41991894 264.42173139 118.1609963 267.22530484 113 270.3125 C112.4121875 270.66119141 111.824375 271.00988281 111.21875 271.36914062 C104.18910565 275.66049328 98.63950744 279.77917223 96.4375 288 C95.42902834 299.75088718 103.075537 311.44669025 108.375 321.5 C110.50210553 325.54180833 112.62472552 329.58588618 114.74078369 333.63348389 C115.66729553 335.39899935 116.60283862 337.15976598 117.53857422 338.92041016 C128.05491779 358.95362213 128.05491779 358.95362213 125.97265625 369.546875 C124.30388396 374.16809058 121.58404312 376.22010164 117.375 378.5 C103.0979421 383.2590193 84.71655298 378.68970603 70.20117188 376.27880859 C50.80875193 372.86760627 50.80875193 372.86760627 32.375 377.5 C21.90299787 387.09933528 21.67889678 406.05928077 19.9453125 419.21899414 C15.50914501 452.79523685 15.50914501 452.79523685 6.6875 462.4375 C2.30596119 465.16562794 -0.60134967 465.45727539 -5.625 464.5 C-19.8265398 460.27858009 -31.28167941 445.90323191 -41.25 435.75 C-55.08655152 421.19469764 -55.08655152 421.19469764 -73.3125 414.0625 C-84.84122019 414.51418493 -92.9484358 423.938738 -100.625 431.5 C-101.79289062 432.62728516 -101.79289062 432.62728516 -102.984375 433.77734375 C-106.13644417 436.86221765 -109.12335964 440.03223736 -112 443.375 C-131.23064799 465.57091798 -131.23064799 465.57091798 -143.625 467.5 C-148.62531187 467.36531146 -151.72289441 466.32191842 -155.4375 462.9375 C-163.95678505 450.68373384 -165.46481968 434.78072463 -167.74584961 420.42370605 C-170.30432822 398.49823965 -170.30432822 398.49823965 -181.625 380.5 C-185.72682347 378.38770534 -189.59129546 378.13315677 -194.125 378.15625 C-194.86202148 378.15878784 -195.59904297 378.16132568 -196.35839844 378.16394043 C-205.92803158 378.35575159 -215.24458666 380.23525052 -224.625 382 C-260.12217784 388.67813068 -260.12217784 388.67813068 -270.625 382.5 C-274.38040649 378.93236384 -274.96553328 375.62171986 -275.25 370.625 C-274.62456459 355.4962246 -265.9377213 341.74118823 -259.09545898 328.58618164 C-249.49737515 310.4508399 -249.49737515 310.4508399 -248.625 290.5 C-254.8072763 277.76924985 -275.1786326 271.1613213 -287.3347168 265.5 C-313.12373128 253.4484537 -313.12373128 253.4484537 -320.625 242.5 C-322.28645538 237.51563385 -322.20431301 233.85173036 -320.125 229 C-312.38855182 217.03642034 -297.05915349 210.61422469 -284.6875 204.5625 C-263.96005383 195.35972274 -263.96005383 195.35972274 -250 178.8125 C-247.45372362 164.07238894 -259.33327354 147.01424831 -266.14770508 134.69726562 C-280.71682688 108.29173032 -280.71682688 108.29173032 -279.625 96.5 C-278.18540022 92.93527673 -276.75240935 89.81659951 -273.625 87.5 C-268.37337764 85.29267748 -263.54705609 85.07837985 -257.9375 85.0625 C-256.47666992 85.05669922 -256.47666992 85.05669922 -254.98632812 85.05078125 C-243.93892414 85.21334268 -233.10462604 86.9288866 -222.22387695 88.72094727 C-203.51245401 92.00885153 -203.51245401 92.00885153 -185.625 87.5 C-175.52906223 78.76837814 -175.11913026 59.45082876 -173.37890625 46.921875 C-173.27976425 46.20888748 -173.18062225 45.49589996 -173.07847595 44.76130676 C-172.67793209 41.85936063 -172.28060562 38.95713128 -171.89819336 36.05273438 C-168.67782953 11.76075395 -168.67782953 11.76075395 -160.625 2.5 C-156.13047802 -0.2644131 -151.74735532 -0.30175996 -146.625 0.5 C-133.37029141 5.62805119 -122.23010691 18.8048067 -112.5 28.6875 C-98.35306326 43.7183399 -98.35306326 43.7183399 -79.6875 50.9375 C-66.90679356 50.25456149 -54.85255159 36.37466239 -46.625 27.5 C-45.55660081 26.27595747 -44.49422679 25.04663348 -43.4375 23.8125 C-15.27134492 -8.72648281 -15.27134492 -8.72648281 0 0 Z M-173.625 114.5 C-174.14545898 114.94069824 -174.66591797 115.38139648 -175.20214844 115.83544922 C-205.33598673 141.60303383 -223.82266667 179.14226259 -227.22583008 218.55273438 C-229.28165779 248.53054145 -222.96117853 277.18712405 -208.625 303.5 C-207.77615234 305.08748047 -207.77615234 305.08748047 -206.91015625 306.70703125 C-188.1086958 340.4611826 -155.37737651 365.2364826 -118.625 376.5 C-78.87090535 387.61155882 -36.85913508 383.01821258 -0.7265625 362.9140625 C10.58101972 356.39432774 20.63948616 348.14481312 30.375 339.5 C31.02855469 338.91992188 31.68210937 338.33984375 32.35546875 337.7421875 C56.68383886 314.74292075 70.43879827 282.06419646 75.375 249.5 C75.57222656 248.22382813 75.57222656 248.22382813 75.7734375 246.921875 C78.37934968 226.21543765 75.74827185 204.29412076 69.375 184.5 C69.17567871 183.8802832 68.97635742 183.26056641 68.77099609 182.62207031 C56.02251729 143.89574439 27.90984378 112.89256226 -7.98754883 94.07397461 C-22.85743056 86.66657883 -39.16719248 81.70705858 -55.625 79.5 C-56.54410156 79.37109375 -57.46320313 79.2421875 -58.41015625 79.109375 C-99.75174222 74.37036967 -142.10011066 87.568953 -173.625 114.5 Z " fill="#FF8E42" transform="translate(332.625,23.5)"/>
<path d="M0 0 C0.86238281 0.80050781 1.72476563 1.60101563 2.61328125 2.42578125 C12.92151531 12.22100832 21.02709899 24.10486272 27 37 C27 37.66 27 38.32 27 39 C28.258125 39.0825 29.51625 39.165 30.8125 39.25 C33.66782997 39.43723475 34.68000088 39.68429617 36.74609375 41.72265625 C38.24611975 44.44700253 38.33928121 46.09390607 38.25 49.1875 C38.21712891 50.65703125 38.21712891 50.65703125 38.18359375 52.15625 C38.0284811 54.55884595 37.71775019 56.8197461 37.3125 59.1875 C36.75807272 63.47097904 37.54276609 67.0713596 38.45703125 71.2734375 C40.15799941 79.70633713 40.47565732 87.85755458 40.375 96.4375 C40.37001495 97.15844849 40.36502991 97.87939697 40.3598938 98.62219238 C40.27334211 109.32146015 39.94297791 119.64526061 37 130 C36.77957031 130.79696289 36.55914062 131.59392578 36.33203125 132.41503906 C29.73171088 155.59473562 18.49241799 174.49132386 2 192 C1.3503125 192.72574219 0.700625 193.45148438 0.03125 194.19921875 C-16.40940647 211.80969116 -39.1327596 222.61939777 -62 229 C-62.68400879 229.19352051 -63.36801758 229.38704102 -64.07275391 229.58642578 C-84.80068565 235.11845345 -110.52242371 233.84686911 -131 228 C-131.74813965 227.79632813 -132.4962793 227.59265625 -133.26708984 227.3828125 C-155.26020854 221.26758362 -173.49103618 209.57965129 -190 194 C-190.73734375 193.32710937 -191.4746875 192.65421875 -192.234375 191.9609375 C-209.85535522 175.27724346 -220.63207263 153.13352275 -227 130 C-227.18675293 129.32952637 -227.37350586 128.65905273 -227.56591797 127.96826172 C-230.71896881 115.94666947 -230.46884803 103.36340063 -230.62255859 91.0168457 C-230.72909478 83.76638183 -231.09126609 77.04360239 -233 70 C-233.43596434 66.14898163 -233.55772764 64.75691609 -231.25 61.625 C-229 60 -229 60 -225 60 C-224.814375 58.845 -224.62875 57.69 -224.4375 56.5 C-219.93026093 36.23340728 -207.00846856 17.78418181 -193 3 C-192.16726562 2.1028125 -191.33453125 1.205625 -190.4765625 0.28125 C-167.58750457 -23.61465799 -134.59531719 -37.42630247 -101.6640625 -38.96875 C-62.93894583 -39.29902818 -27.87833599 -27.2492057 0 0 Z " fill="#FE8D42" transform="translate(351,157)"/>
<path d="M0 0 C2.41796875 1.4296875 2.41796875 1.4296875 3.60546875 4.66796875 C3.89436442 6.02231436 4.16411516 7.3808385 4.41796875 8.7421875 C4.73721329 10.20060678 5.06283815 11.65764271 5.39453125 13.11328125 C5.55985352 13.84144043 5.72517578 14.56959961 5.89550781 15.31982422 C9.34353563 29.24405616 16.46963309 40.31071143 26.41796875 50.4296875 C27.37509766 51.40615234 27.37509766 51.40615234 28.3515625 52.40234375 C35.17844113 58.86020192 44.93326412 64.61204055 54.41796875 65.4296875 C56.90791569 64.05132402 58.39116797 62.50474544 60.41796875 60.4296875 C64.12671683 58.57531346 68.37117183 58.96530097 72.41796875 59.4296875 C75.08029614 60.50494847 77.04039837 61.77572549 79.41796875 63.4296875 C79.41796875 64.0896875 79.41796875 64.7496875 79.41796875 65.4296875 C87.48589528 62.6115246 94.58786037 59.59766316 101.41796875 54.4296875 C102.40796875 53.7284375 103.39796875 53.0271875 104.41796875 52.3046875 C115.78030565 42.32723377 122.09487102 27.87793849 125.41796875 13.4296875 C126.07796875 13.4296875 126.73796875 13.4296875 127.41796875 13.4296875 C129.82026739 24.34582739 130.92400512 34.6977575 130.79296875 45.8671875 C130.7879837 46.58813599 130.78299866 47.30908447 130.77786255 48.05187988 C130.69131086 58.75114765 130.36094666 69.07494811 127.41796875 79.4296875 C127.19753906 80.22665039 126.97710937 81.02361328 126.75 81.84472656 C120.14967963 105.02442312 108.91038674 123.92101136 92.41796875 141.4296875 C91.76828125 142.15542969 91.11859375 142.88117188 90.44921875 143.62890625 C74.00856228 161.23937866 51.28520915 172.04908527 28.41796875 178.4296875 C27.73395996 178.62320801 27.04995117 178.81672852 26.34521484 179.01611328 C5.6172831 184.54814095 -20.10445496 183.27655661 -40.58203125 177.4296875 C-41.3301709 177.22601563 -42.07831055 177.02234375 -42.84912109 176.8125 C-64.84223979 170.69727112 -83.07306743 159.00933879 -99.58203125 143.4296875 C-100.319375 142.75679687 -101.05671875 142.08390625 -101.81640625 141.390625 C-119.44057455 124.70391246 -130.20655234 102.56410075 -136.58203125 79.4296875 C-136.77410156 78.74326172 -136.96617187 78.05683594 -137.1640625 77.34960938 C-141.08035405 62.53646081 -139.86265583 46.61363595 -139.58203125 31.4296875 C-136.31112517 33.06514054 -135.4561658 36.61157068 -133.95703125 39.8046875 C-125.55911986 57.00368646 -114.24285769 68.01624756 -96.58203125 75.4296875 C-91.71965468 77.05047969 -87.25539742 77.762638 -82.14453125 78.0546875 C-80.90832031 78.12945312 -79.67210937 78.20421875 -78.3984375 78.28125 C-77.00431641 78.35472656 -77.00431641 78.35472656 -75.58203125 78.4296875 C-75.453125 77.65882813 -75.32421875 76.88796875 -75.19140625 76.09375 C-74.20765116 71.79297454 -71.72672409 69.37814728 -68.39453125 66.6171875 C-63.6443693 64.61156356 -59.06696013 64.47932563 -54.22265625 66.33203125 C-52.302683 67.28861367 -50.43612335 68.35094301 -48.58203125 69.4296875 C-38.65711708 62.14870538 -31.83082369 54.37246153 -26.26953125 43.4296875 C-25.78105713 42.4696582 -25.78105713 42.4696582 -25.28271484 41.49023438 C-20.56041098 31.75585449 -19.02389449 22.59833687 -18.84960938 11.84570312 C-18.47469793 5.32034565 -18.47469793 5.32034565 -15.84594727 2.69750977 C-10.4905597 -0.78890007 -6.3072899 -1.39313816 0 0 Z " fill="#FE8D43" transform="translate(260.58203125,207.5703125)"/>
<path d="M0 0 C1.30227539 -0.0080365 1.30227539 -0.0080365 2.63085938 -0.01623535 C5.11475504 -0.02790513 7.5981329 -0.02451529 10.08203125 -0.015625 C10.82673172 -0.01957275 11.57143219 -0.02352051 12.33869934 -0.02758789 C16.37401818 0.00830155 19.62502491 0.28092883 23.1875 2.25 C27.19477338 8.26091007 25.41156582 17.35071991 24.1875 24.25 C21.09493303 36.47182465 15.56824711 48.83145009 7.1875 58.25 C6.71828125 58.85972656 6.2490625 59.46945313 5.765625 60.09765625 C-0.98228484 68.72209158 -10.54058945 73.85729895 -20.8125 77.25 C-21.8025 77.25 -22.7925 77.25 -23.8125 77.25 C-23.8125 76.59 -23.8125 75.93 -23.8125 75.25 C-29.51861986 72.29855869 -34.42398085 71.50251336 -40.8125 72.25 C-44.1794115 73.99348693 -44.1794115 73.99348693 -46.8125 76.25 C-48.59765625 77.5 -48.59765625 77.5 -50.8125 78.25 C-66.32100296 74.88876068 -80.07317489 62.77876615 -88.625 49.8125 C-95.51522376 38.30177325 -99.98387446 26.67944834 -100.8125 13.25 C-107.11851366 11.72126942 -112.55010733 11.30205085 -118.31005859 14.76245117 C-121.36398238 17.7861037 -120.85825538 21.99725098 -120.9375 26.0625 C-122.08257821 46.01223079 -130.0580624 63.75158402 -145.0625 77.25 C-147.48967744 79.33616904 -149.77350465 81.17457023 -152.8125 82.25 C-154.49357604 81.26113174 -156.17211386 80.26701422 -157.82421875 79.23046875 C-161.44800687 77.44349268 -164.89929775 77.46182852 -168.8125 78.25 C-173.19549057 80.16227002 -175.8362728 82.68318008 -177.75 87.0625 C-178.100625 88.114375 -178.45125 89.16625 -178.8125 90.25 C-195.78460607 91.15383997 -208.98854972 86.0851861 -222 75.125 C-230.03063278 67.49268661 -235.49947255 58.39820511 -240.25 48.5 C-240.58016113 47.81550781 -240.91032227 47.13101563 -241.25048828 46.42578125 C-244.19595312 40.00155444 -246.80712362 32.37813594 -245.8125 25.25 C-243.03134312 21.82768179 -241.01446812 20.70598234 -236.68359375 20.08984375 C-235.1507373 19.86131714 -235.1507373 19.86131714 -233.58691406 19.62817383 C-232.48573242 19.48275146 -231.38455078 19.3373291 -230.25 19.1875 C-229.1062793 19.02467529 -227.96255859 18.86185059 -226.78417969 18.6940918 C-214.16347295 16.93815991 -201.49860998 15.44584191 -188.8125 14.25 C-187.83531006 14.15356201 -186.85812012 14.05712402 -185.85131836 13.95776367 C-177.93146581 13.27870885 -170.04307534 13.14898682 -162.09765625 13.07421875 C-160.37586655 13.0561895 -160.37586655 13.0561895 -158.61929321 13.03779602 C-153.81804052 12.98911829 -149.01705782 12.94169062 -144.21557617 12.92407227 C-140.67585899 12.90860459 -137.1371155 12.86845747 -133.59765625 12.82421875 C-132.51839371 12.82612717 -131.43913116 12.82803558 -130.3271637 12.83000183 C-123.86851486 12.72510632 -120.16736228 11.86094501 -114.8125 8.25 C-111.79296875 7.82421875 -111.79296875 7.82421875 -109 7.9375 C-108.06542969 7.96199219 -107.13085938 7.98648438 -106.16796875 8.01171875 C-103.8125 8.25 -103.8125 8.25 -101.8125 9.25 C-96.1525224 9.85809677 -90.89094503 9.15214033 -85.375 7.86328125 C-77.97505825 6.22777986 -70.57935578 5.12662685 -63.0625 4.1875 C-62.3924292 4.10350952 -61.7223584 4.01951904 -61.03198242 3.9329834 C-40.66426999 1.39631447 -20.52232922 0.07239414 0 0 Z " fill="#252423" transform="translate(363.8125,195.75)"/>
<path d="M0 0 C2.64653131 0.30731987 5.292115 0.62059322 7.9375 0.9375 C8.69224609 1.02451172 9.44699219 1.11152344 10.22460938 1.20117188 C15.88671875 1.88671875 15.88671875 1.88671875 17 3 C17.90413706 13.78656544 15.56995307 22.34345239 9 31 C1.53852894 38.75180068 -7.04859448 41.01816414 -17.5625 41.5 C-24.82872258 41.29288677 -30.54682618 39.36367472 -35.80859375 34.23828125 C-42.28330971 26.27809429 -45.57782915 16.20831504 -45 6 C-42.52000933 3.52000933 -41.04581838 3.45277898 -37.625 2.875 C-36.19027344 2.62363281 -36.19027344 2.62363281 -34.7265625 2.3671875 C-32 2 -32 2 -28 2 C-26.7265625 3.609375 -26.7265625 3.609375 -25.625 5.75 C-23.29699165 9.74087145 -21.28547737 11.98330477 -17 14 C-13.08188662 14.67101548 -9.86229128 14.38324057 -6.1875 12.75 C-1.39214558 8.91371647 -0.75997652 6.05166491 0 0 Z " fill="#CD4645" transform="translate(278,278)"/>
<path d="M0 0 C4.64342047 2.30673146 7.23989548 5.56755909 8.94140625 10.33984375 C9.78803387 16.16040866 8.29737982 20.61890233 4.94140625 25.33984375 C-0.28867872 29.50256444 -4.38717602 30.89579523 -11.05859375 30.33984375 C-15.82973154 28.68638055 -19.10729449 26.01047863 -21.3984375 21.3984375 C-23.1384593 15.97245237 -22.89057484 11.06780448 -20.43359375 5.96484375 C-14.57323094 -0.51239935 -8.47719946 -2.7184947 0 0 Z " fill="#FEB8B7" transform="translate(335.05859375,267.66015625)"/>
<path d="M0 0 C3.90392564 1.3625466 6.58582774 3.56458814 9.4375 6.5625 C11.65132812 11.43292186 11.78360136 15.73419888 11 21 C8.9976035 25.004793 6.82001123 27.6587028 3 30 C-2.36950705 31.78983568 -7.19735333 31.88431724 -12.3125 29.375 C-16.07280603 26.05193885 -18.63331855 23.51064546 -19.3828125 18.37890625 C-19.56800392 13.82937048 -19.33813423 10.71528396 -17.375 6.5625 C-12.10627011 0.87781775 -7.66360858 -1.30842098 0 0 Z " fill="#FDB8B8" transform="translate(204,273)"/>
<path d="M0 0 C0.98392619 3.1057262 1.07668347 3.80627333 -0.1875 7 C-2.61537764 11.01855609 -4.49493977 13.49831326 -9 15 C-15.12455118 15.50201239 -18.12517646 15.09928344 -23 11 C-27 6.78947368 -27 6.78947368 -27 2 C-17.9400212 -0.14982548 -9.24154826 -0.20871753 0 0 Z " fill="#FDF9F9" transform="translate(278,278)"/>
<path d="M0 0 C0.33 0.66 0.66 1.32 1 2 C0.14233398 3.86572266 0.14233398 3.86572266 -1.25390625 6.1640625 C-1.77251221 7.02821777 -2.29111816 7.89237305 -2.82543945 8.78271484 C-3.39866943 9.72066895 -3.97189941 10.65862305 -4.5625 11.625 C-5.75604492 13.60887193 -6.94872076 15.59326692 -8.140625 17.578125 C-8.76904297 18.62033203 -9.39746094 19.66253906 -10.04492188 20.73632812 C-13.35009085 26.25374805 -16.57957102 31.81504743 -19.8125 37.375 C-21.00645977 39.42450867 -22.20046567 41.47399047 -23.39453125 43.5234375 C-24.26311354 45.01557104 -25.13164158 46.50773617 -26 48 C-26.33 47.34 -26.66 46.68 -27 46 C-26.09718409 43.53606491 -25.12037056 41.24095261 -24 38.875 C-23.65549805 38.1437793 -23.31099609 37.41255859 -22.95605469 36.65917969 C-16.70747046 23.88300958 -9.03129549 11.00427101 0 0 Z " fill="#E4DFD0" transform="translate(323,203)"/>
<path d="M0 0 C1 3 1 3 0.23413086 4.68798828 C-0.18473389 5.30915527 -0.60359863 5.93032227 -1.03515625 6.5703125 C-1.50840332 7.29041504 -1.98165039 8.01051758 -2.46923828 8.75244141 C-2.99501465 9.53538574 -3.52079102 10.31833008 -4.0625 11.125 C-9.98344895 20.17183803 -15.28634042 29.48978393 -20.45336914 38.98486328 C-21.01789795 40.01337402 -21.58242676 41.04188477 -22.1640625 42.1015625 C-22.66373535 43.02275879 -23.1634082 43.94395508 -23.67822266 44.89306641 C-25 47 -25 47 -27 48 C-25.05505586 41.40371754 -22.41930593 35.55440456 -19.0625 29.5625 C-18.35311279 28.28282349 -18.35311279 28.28282349 -17.62939453 26.97729492 C-5.56415008 5.56415008 -5.56415008 5.56415008 0 0 Z " fill="#E8E3D4" transform="translate(170,216)"/>
<path d="M0 0 C1 3 1 3 0.36669922 4.79003906 C0.01623535 5.44198242 -0.33422852 6.09392578 -0.6953125 6.765625 C-1.27539062 7.85423828 -1.27539062 7.85423828 -1.8671875 8.96484375 C-2.48980469 10.09599609 -2.48980469 10.09599609 -3.125 11.25 C-3.516875 11.98863281 -3.90875 12.72726563 -4.3125 13.48828125 C-6.89147958 18.26697871 -9.76075475 22.64258113 -13 27 C-13.33 26.34 -13.66 25.68 -14 25 C-13.07929843 22.77396166 -12.10497829 20.69549011 -11 18.5625 C-10.52711548 17.63219971 -10.52711548 17.63219971 -10.04467773 16.68310547 C-7.04989068 10.89521051 -3.63208197 5.40948378 0 0 Z " fill="#E6E1D1" transform="translate(301,207)"/>
<path d="M0 0 C0.66 0 1.32 0 2 0 C0.42265263 5.52517159 -2.15175097 10.26539856 -4.9375 15.25 C-5.38029297 16.0646875 -5.82308594 16.879375 -6.27929688 17.71875 C-6.71177734 18.49734375 -7.14425781 19.2759375 -7.58984375 20.078125 C-7.98034912 20.78356445 -8.37085449 21.48900391 -8.77319336 22.21582031 C-10 24 -10 24 -13 26 C-11.09639185 19.4321146 -8.45887919 13.78596239 -4.9375 7.9375 C-4.49083984 7.16728516 -4.04417969 6.39707031 -3.58398438 5.60351562 C-1.10530133 1.42791654 -1.10530133 1.42791654 0 0 Z " fill="#E7E1D2" transform="translate(147,221)"/>
<path d="M0 0 C0.66 0 1.32 0 2 0 C0.63412997 4.46094497 -1.12057921 8.44596584 -3.3125 12.5625 C-3.88613281 13.65691406 -4.45976562 14.75132812 -5.05078125 15.87890625 C-7.04970474 19.07958736 -9.23701666 21.44626153 -12 24 C-10.34607637 17.71509021 -7.74404092 12.48689801 -4.4375 6.9375 C-4.03732666 6.2580835 -3.63715332 5.57866699 -3.22485352 4.87866211 C-2.21043318 3.21401044 -1.11180417 1.60125116 0 0 Z " fill="#DAD5C6" transform="translate(328,220)"/>
<path d="M0 0 C0.66 0.33 1.32 0.66 2 1 C0.61564298 3.73553774 -0.78178891 6.46296012 -2.1875 9.1875 C-2.76854492 10.34088867 -2.76854492 10.34088867 -3.36132812 11.51757812 C-5.75218371 16.12145706 -8.11150657 19.5535378 -12 23 C-10.49289345 17.77042263 -8.13433901 13.36968968 -5.4375 8.6875 C-5.02564453 7.95982422 -4.61378906 7.23214844 -4.18945312 6.48242188 C-1.15697714 1.15697714 -1.15697714 1.15697714 0 0 Z " fill="#E1DCCD" transform="translate(175,234)"/>
<path d="M0 0 C1 3 1 3 0.00390625 5.48046875 C-0.47175781 6.37378906 -0.94742187 7.26710937 -1.4375 8.1875 C-1.91058594 9.08855469 -2.38367188 9.98960937 -2.87109375 10.91796875 C-3.24363281 11.60503906 -3.61617188 12.29210937 -4 13 C-4.99 13 -5.98 13 -7 13 C-5.35821735 8.22390502 -2.73453298 4.20617096 0 0 Z " fill="#DED9CB" transform="translate(301,207)"/>
<path d="M0 0 C0.66 0 1.32 0 2 0 C0.68938409 4.23429756 -0.94356259 8.07407404 -3 12 C-3.99 11.34 -4.98 10.68 -6 10 C-5.05065487 8.32819726 -4.09026687 6.66266064 -3.125 5 C-2.59132812 4.071875 -2.05765625 3.14375 -1.5078125 2.1875 C-1.01023438 1.465625 -0.51265625 0.74375 0 0 Z " fill="#DFDACB" transform="translate(147,221)"/>
<path d="M0 0 C0.33 0.99 0.66 1.98 1 3 C-0.21484375 5.26171875 -0.21484375 5.26171875 -1.9375 7.6875 C-2.78634766 8.89986328 -2.78634766 8.89986328 -3.65234375 10.13671875 C-4.09707031 10.75160156 -4.54179687 11.36648437 -5 12 C-5.66 11.34 -6.32 10.68 -7 10 C-3.535 5.05 -3.535 5.05 0 0 Z " fill="#D9D4C6" transform="translate(170,216)"/>
<path d="M0 0 C0.66 0.99 1.32 1.98 2 3 C-0.97 7.95 -0.97 7.95 -4 13 C-4.33 12.34 -4.66 11.68 -5 11 C-4.00390625 8.3984375 -4.00390625 8.3984375 -2.5625 5.375 C-2.08941406 4.37210938 -1.61632812 3.36921875 -1.12890625 2.3359375 C-0.75636719 1.56507813 -0.38382813 0.79421875 0 0 Z " fill="#D5D0C2" transform="translate(148,251)"/>
<path d="M0 0 C0.66 0.99 1.32 1.98 2 3 C-0.97 7.95 -0.97 7.95 -4 13 C-4.33 12.34 -4.66 11.68 -5 11 C-4.00390625 8.3984375 -4.00390625 8.3984375 -2.5625 5.375 C-2.08941406 4.37210938 -1.61632812 3.36921875 -1.12890625 2.3359375 C-0.75636719 1.56507813 -0.38382812 0.79421875 0 0 Z " fill="#D2CDBF" transform="translate(301,238)"/>
</svg>
